<svg xmlns="http://www.w3.org/2000/svg" viewBox="0 0 512 512" role="img" aria-label="MedAce Study Space">
  <rect width="512" height="512" rx="112" fill="#FF8216" />
  <rect x="56" y="56" width="400" height="400" rx="84" fill="#FFFFFF" opacity="0.08" />
  <circle cx="382" cy="132" r="58" fill="#FED7AA" opacity="0.95" />
  <circle cx="132" cy="390" r="76" fill="#C2410C" opacity="0.55" />
  <path d="M132 164c0-37.6 30.4-68 68-68h170v48H207c-16.6 0-30 13.4-30 30v46h193v48H177v94c0 16.6 13.4 30 30 30h163v48H200c-37.6 0-68-30.4-68-68V164Z" fill="#FFFFFF" />
  <path d="M238 196h154v30H238zM238 258h136v30H238zM238 320h118v30H238z" fill="#7C2D12" />
</svg>
